<?xml version="1.0" encoding="utf-8"?>
<!-- Generator: Adobe Illustrator 22.0.0, SVG Export Plug-In . SVG Version: 6.00 Build 0)  -->
<svg version="1.1" id="Layer_1" xmlns="http://www.w3.org/2000/svg" xmlns:xlink="http://www.w3.org/1999/xlink" x="0px" y="0px"
	 viewBox="0 0 1000 1000" style="enable-background:new 0 0 1000 1000;" xml:space="preserve">
<style type="text/css">
	.st0{clip-path:url(#SVGID_2_);fill:url(#SVGID_3_);}
	.st1{clip-path:url(#SVGID_5_);fill:url(#SVGID_6_);}
	.st2{fill:#161616;}
	.st3{clip-path:url(#SVGID_8_);fill:url(#SVGID_9_);}
	.st4{clip-path:url(#SVGID_11_);fill:url(#SVGID_12_);}
	.st5{clip-path:url(#SVGID_14_);fill:url(#SVGID_15_);}
	.st6{clip-path:url(#SVGID_17_);fill:url(#SVGID_18_);}
</style>
<g>
	<g>
		<defs>
			<path id="SVGID_13_" d="M321.6,80.3l-5.4,2.3l-8.4,3.6c-12.3,5.4-24.3,11.2-36.1,17.5c-0.9-0.1-1.7,0.2-2.4,0.8
				c-0.4,0.3-0.7,0.7-1,1.1c-9.6,5.3-19.1,11-28.3,16.9h-0.7c-0.9,0-1.7,0.2-2.4,0.8c-0.7,0.6-1.2,1.4-1.4,2.2l-6.3,4.4
				c-0.6,0.4-1.2,0.8-1.7,1.2c-1.4,0.9-2.8,2-4.2,2.9H223l-1,0.7c-5.9,4.3-11.8,8.8-17.8,13.3c69-11.1,169.8-13.1,298.2,22.4
				c85.5,23.7,129.9,66.8,143.6,114.1c0.6,1.9,1.2,4.3,1.5,5.7c0.4,1.4,0.6,2.8,0.9,4.1c0.4,2.1,0.8,4.3,1.2,6.5
				c2.2,16,1.4,32.3-2.4,47.9c-0.4,1.6-0.7,3.1-1.2,4.7c-5.3,19.4-14,37.7-25.8,54c-0.8,1.1-1.6,2.3-2.5,3.4
				c-5.7,7.7-12,14.9-18.8,21.7c-0.9,1-2,2-2.9,2.9c-22.1,21.1-48.2,37.7-76.7,48.8c-26.1,10.3-52.2,20.5-76.3,31.1l-9.3,4.1
				c-21.7,9.3-42.5,20.5-62.1,33.6c-2,1.4-3.9,2.8-5.8,4.2c-15,11.3-25.8,23.4-30.3,36.4c-0.8,2.3-1.4,4.6-1.8,7
				c-0.2,1.4-0.4,2.8-0.5,4.2c0,0.4,0,0.7,0,1.1c-1.1,22.6,16.3,48.2,60.7,78.1c1.8,1.4,4.1,2.8,6.2,4.1c10.7,7,22.8,14.1,36.5,21.5
				c12.1,6.6,25.5,13.4,40.3,20.5l8.9,4.1c16.8,7.9,35.3,16,55.5,24.5c104.9,43.8,185.9,74.7,247.5,96.5l13.3,4.7
				c49.8-41.7,90.3-93.4,118.8-151.8c0.7-1.4,1.4-2.7,2-4.1c3.4-7,6.5-14.1,9.5-21.3c0.6-1.4,1.2-2.8,1.7-4.2
				c2.2-5.3,4.2-10.7,6.1-16.1c0.5-1.4,1-2.8,1.5-4.2c5.7-16.2,10.5-32.8,14.3-49.6c0.4-1.4,0.7-2.8,0.9-4.2c2-9.2,3.8-18.6,5.2-28
				c0.3-1.4,0.6-2.8,0.6-4.1c2.3-15.4,3.8-31,4.4-46.6v-4.1v-2.9v-17.1c0-1.5,0-2.8-0.1-4.4c-0.1-7.3-0.4-14.6-0.9-21.8
				c-0.2-1.4-0.3-2.7-0.3-4.1c-1.4-18.8-3.9-37.4-7.5-55.8c-0.3-1.4-0.6-2.8-0.8-4.1c-1.5-6.9-3.1-13.8-4.8-20.6
				c-0.3-1.4-0.7-2.8-1.1-4.1c-3-10.9-6.3-21.7-9.9-32.4l-1.5-4.1c-6.7-18.7-14.6-36.9-23.7-54.6c-0.8-1.6-1.6-3.2-2.4-4.7
				c-1.8-3.4-3.6-6.7-5.4-9.9C825.1,129.4,667.9,42.4,504.5,42.4C443.2,42.4,381,54.6,321.6,80.3"/>
		</defs>
		<clipPath id="SVGID_2_">
			<use xlink:href="#SVGID_13_"  style="overflow:visible;"/>
		</clipPath>
		
			<linearGradient id="SVGID_3_" gradientUnits="userSpaceOnUse" x1="-580.2296" y1="816.9101" x2="-578.0027" y2="816.9101" gradientTransform="matrix(342.6629 0 0 342.6629 199027.4219 -279473.8125)">
			<stop  offset="0" style="stop-color:#3861AC"/>
			<stop  offset="1" style="stop-color:#2F398D"/>
		</linearGradient>
		<rect x="204.2" y="42.4" class="st0" width="763.1" height="817.2"/>
	</g>
	<g>
		<defs>
			<path id="SVGID_16_" d="M298.9,196.5c-21.1,2.4-41.9,6.8-62.1,13.1c-38.3,12.3-73.7,32.4-103.8,59l-4.4,4.1
				c-21.8,20-40.5,43.3-55.3,68.9c-3,5.1-5.8,10.4-8.5,15.7c-0.7,1.4-1.4,2.8-2,4.1c-6.5,13.5-11.9,27.4-16.2,41.7
				c-0.4,1.4-0.8,2.8-1.2,4.2c-4,13.8-7,27.9-8.9,42.2c-0.2,1.4-0.4,2.8-0.6,4.1c-0.8,5.8-1.3,11.6-1.7,17.4c0,2.3,0,4.4-0.3,6.8
				c-0.6,7.9-0.9,15.7-1,23.5v4.1c0,20.4,1.4,40.7,4.4,60.9c0,1.4,0.4,2.8,0.6,4.1c1.9,13.2,4.6,26.2,7.9,39.1l1.1,4.1
				c7.5,28.3,17.9,55.8,31.1,81.9c0.7,1.4,1.4,2.8,2.1,4.1c20.7,39.9,47.1,76.5,78.5,108.7c16.2,16.7,33.5,32.2,51.9,46.3
				c1.3,1,2.6,2,3.9,3c72.7,54.9,159.1,88.7,249.8,97.7c11.4,1.1,22.7,1.8,33.9,2h10.2h5c38.2-0.3,76.1-5.3,113-15
				c2.8-0.7,5.6-1.5,8.4-2.3c0.8,0,33.3-8.9,40.4-11.1c41.3-12.6,79.5-33.7,112-62.1C527.2,794,338,738.8,332.8,736.4l-5.2-2.4
				l-8.9-4.1l-1.4-0.7c-18.1-8.6-35.5-18.4-52.3-29.3l-6.1-4.1c-17.4-11.3-32.6-25.8-44.7-42.7c-0.9-1.4-1.8-2.8-2.6-4.2
				c-4.4-7.3-7.5-15.4-8.9-23.9c-1-6.3-1.5-12.6-1.4-19v-4.4c0-1.6,0-2.8,0.3-4.1c0.3-2.6,0.6-5.1,1.1-7.6
				c4.3-20.6,14.6-39.4,29.6-54c1.3-1.4,2.7-2.8,4.1-4.1c18-17.4,41.7-32.2,67.8-45.8l8-4.1c44.9-22.5,95.9-42,137.6-65.1
				c2.4-1.3,4.9-2.7,7.3-4.1c26.3-15.2,48.3-32.1,62.1-52.5c0.9-1.4,1.8-2.8,2.6-4.1c6.5-10.7,10.5-22.7,11.8-35.1
				c0-1.4,0-2.8,0.3-4.1c0.5-15.3-2.2-30.5-7.9-44.7c-20.1-53.5-99.7-78.2-180.6-78.2C329.9,193.8,314.2,194.7,298.9,196.5"/>
		</defs>
		<clipPath id="SVGID_5_">
			<use xlink:href="#SVGID_16_"  style="overflow:visible;"/>
		</clipPath>
		
			<linearGradient id="SVGID_6_" gradientUnits="userSpaceOnUse" x1="-580.5313" y1="817.1418" x2="-578.3043" y2="817.1418" gradientTransform="matrix(338.6569 0 0 338.6569 196633.5469 -276154.9375)">
			<stop  offset="0" style="stop-color:#FCBA2D"/>
			<stop  offset="1" style="stop-color:#E35E26"/>
		</linearGradient>
		<rect x="32.6" y="193.8" class="st1" width="754.2" height="763.8"/>
	</g>
</g>
</svg>
